<svg width="20" height="20" viewBox="0 0 20 20" fill="none" xmlns="http://www.w3.org/2000/svg">
<g id="Frame">
<path id="Vector" d="M20 10C19.9995 8.08896 19.4515 6.21806 18.4207 4.60881C17.39 2.99956 15.9197 1.71937 14.1839 0.919793C12.4482 0.120218 10.5197 -0.165249 8.62674 0.0971885C6.73379 0.359626 4.95568 1.15898 3.50292 2.40061C2.05017 3.64223 0.983616 5.27414 0.429535 7.1031C-0.124546 8.93207 -0.142947 10.8815 0.376509 12.7206C0.895965 14.5597 1.93152 16.2115 3.36058 17.4803C4.78964 18.7491 6.55234 19.5819 8.44 19.88V12.89H5.9V10H8.44V7.80002C8.44 5.30002 9.93 3.90002 12.21 3.90002C13.31 3.90002 14.45 4.10002 14.45 4.10002V6.56002H13.2C11.96 6.56002 11.57 7.33002 11.57 8.12002V10H14.35L13.9 12.89H11.57V19.88C13.9212 19.5062 16.0619 18.3059 17.6072 16.4948C19.1525 14.6837 20.001 12.3808 20 10Z" fill="white"/>
</g>
</svg>
