<svg width="20" height="20" viewBox="0 0 20 20" fill="none" xmlns="http://www.w3.org/2000/svg">
<g id="Frame">
<g id="Group">
<g id="Group_2">
<path id="Vector" fill-rule="evenodd" clip-rule="evenodd" d="M10 0C7.28 0 6.94 0.03 5.88 0.08C4.8 0.1 4.08 0.28 3.45 0.53C2.78346 0.780195 2.17945 1.17263 1.68 1.68C1.16902 2.17846 0.773123 2.78255 0.52 3.45C0.230327 4.22815 0.0747857 5.04981 0.06 5.88C0.01 6.95 0 7.28 0 10C0 12.72 0.01 13.06 0.06 14.12C0.11 15.19 0.28 15.92 0.52 16.55C0.78 17.21 1.12 17.77 1.68 18.32C2.23 18.88 2.79 19.22 3.45 19.48C4.08 19.72 4.81 19.89 5.88 19.94C6.94 19.99 7.28 20 10 20C12.71 20 13.05 19.99 14.12 19.94C14.9502 19.9252 15.7718 19.7697 16.55 19.48C17.2175 19.2269 17.8215 18.831 18.32 18.32C18.8274 17.8206 19.2198 17.2165 19.47 16.55C19.72 15.92 19.89 15.19 19.93 14.12C19.98 13.06 19.99 12.72 19.99 10C19.99 7.29 19.99 6.95 19.93 5.88C19.9152 5.04981 19.7597 4.22815 19.47 3.45C19.2198 2.78346 18.8274 2.17945 18.32 1.68C17.8206 1.17263 17.2165 0.780195 16.55 0.53C15.7718 0.240326 14.9502 0.0847858 14.12 0.07C13.05 0.02 12.72 0 10 0ZM10 1.8C12.67 1.8 12.98 1.82 14.04 1.87C15.01 1.91 15.54 2.07 15.89 2.21C16.36 2.39 16.69 2.61 17.04 2.96C17.39 3.31 17.61 3.64 17.79 4.11C17.93 4.46 18.09 4.99 18.13 5.96C18.18 7.02 18.19 7.33 18.19 10C18.19 12.67 18.19 12.99 18.13 14.04C18.09 15.02 17.93 15.54 17.79 15.9C17.61 16.37 17.39 16.7 17.04 17.05C16.7175 17.3828 16.3246 17.6391 15.89 17.8C15.54 17.93 15.01 18.1 14.04 18.14C12.98 18.19 12.67 18.2 10 18.2C7.33 18.2 7.01 18.19 5.96 18.14C4.98 18.1 4.46 17.94 4.1 17.8C3.66543 17.6391 3.27246 17.3828 2.95 17.05C2.61719 16.7275 2.3609 16.3346 2.2 15.9C2.07 15.55 1.9 15.02 1.86 14.04C1.80078 12.6942 1.78077 11.347 1.8 10C1.8 7.33 1.81 7.02 1.86 5.96C1.9 4.99 2.06 4.46 2.2 4.11C2.39 3.64 2.6 3.31 2.95 2.96C3.27144 2.62357 3.66449 2.36382 4.1 2.2C4.45 2.06 4.98 1.9 5.96 1.86C7 1.82 7.33 1.8 10 1.8Z" fill="white"/>
</g>
<path id="Vector_2" fill-rule="evenodd" clip-rule="evenodd" d="M9.99828 13.3402C9.11378 13.3402 8.26551 12.9888 7.64008 12.3634C7.01465 11.738 6.66328 10.8897 6.66328 10.0052C6.66328 9.12072 7.01465 8.27245 7.64008 7.64701C8.26551 7.02158 9.11378 6.67021 9.99828 6.67021C10.8828 6.67021 11.731 7.02158 12.3565 7.64701C12.9819 8.27245 13.3333 9.12072 13.3333 10.0052C13.3333 10.8897 12.9819 11.738 12.3565 12.3634C11.731 12.9888 10.8828 13.3402 9.99828 13.3402ZM9.99828 4.87021C8.63639 4.87021 7.33029 5.41122 6.36729 6.37422C5.40429 7.33722 4.86328 8.64333 4.86328 10.0052C4.86328 11.3671 5.40429 12.6732 6.36729 13.6362C7.33029 14.5992 8.63639 15.1402 9.99828 15.1402C11.3602 15.1402 12.6663 14.5992 13.6293 13.6362C14.5923 12.6732 15.1333 11.3671 15.1333 10.0052C15.1333 8.64333 14.5923 7.33722 13.6293 6.37422C12.6663 5.41122 11.3602 4.87021 9.99828 4.87021ZM16.5283 4.67021C16.5283 4.98847 16.4019 5.2937 16.1768 5.51874C15.9518 5.74379 15.6465 5.87021 15.3283 5.87021C15.01 5.87021 14.7048 5.74379 14.4798 5.51874C14.2547 5.2937 14.1283 4.98847 14.1283 4.67021C14.1283 4.35196 14.2547 4.04673 14.4798 3.82169C14.7048 3.59664 15.01 3.47021 15.3283 3.47021C15.6465 3.47021 15.9518 3.59664 16.1768 3.82169C16.4019 4.04673 16.5283 4.35196 16.5283 4.67021Z" fill="white"/>
</g>
</g>
</svg>
